# xmcd
#
# Track frame offsets:
#	150
#	13861
#	28621
#	48485
#	63217
#	80432
#	102445
#	116411
#	135739
#	150222
#	167033
#	183023
#
# Disc length: 2635 seconds
#
# Revision: 1
# Processed by: cddbd v1.5.2PL0 Copyright (c) Steve Scherf et al.
# Submitted via: audiograbber 1.83.01
#
DISCID=8c0a490c
DTITLE=Smurffit - Tanssii Smurffien Kanssa! Vol. 16
DYEAR=2008
DGENRE=Pop
TTITLE0=Miss‰ V‰lkky Katsastaa (Miss‰ Miehet Ratsastaa)
TTITLE1=Liemess‰ (Liekeiss‰)
TTITLE2=Mun Koti Ei Oo L‰‰v‰ (Mun Koti Ei Oo T‰‰ll‰)
TTITLE3=Juustoo (Soo Soo)
TTITLE4=P‰sm‰rismurffi (Ivory Tower)
TTITLE5=Votkale (Indian)
TTITLE6=Moppe Haukkuu (Ovet Paukkuu)
TTITLE7=Tanssii Smurffien Kanssa (This Groove Is 4 You)
TTITLE8=Smurffimaailma (The World Of Smurfs)
TTITLE9=Jos Possut Lent‰is (If Pigs Could Fly)
TTITLE10=Smurffit Trapetsilla (The Smurfs On The Flying Trapeze)
TTITLE11=Kerro Suursmurffi (Tell Us Papa Smurf)
EXTD=TR.
EXTT0=
EXTT1=
EXTT2=
EXTT3=
EXTT4=
EXTT5=
EXTT6=
EXTT7=
EXTT8=
EXTT9=
EXTT10=
EXTT11=
PLAYORDER=
